<mxfile host="app.diagrams.net" agent="Mozilla/5.0 (Windows NT 10.0; Win64; x64) AppleWebKit/537.36 (KHTML, like Gecko) Chrome/128.0.0.0 Safari/537.36" version="24.7.8" pages="2">
  <diagram id="oGK4ccyiwj8InBO5Qkdz" name="Page-1">
    <mxGraphModel dx="2587" dy="868" grid="1" gridSize="10" guides="1" tooltips="1" connect="1" arrows="1" fold="1" page="1" pageScale="1" pageWidth="827" pageHeight="1169" math="0" shadow="0">
      <root>
        <mxCell id="0" />
        <mxCell id="1" parent="0" />
        <mxCell id="xbrvgaGpoLKTBfdYJC94-17" style="edgeStyle=orthogonalEdgeStyle;rounded=0;orthogonalLoop=1;jettySize=auto;html=1;entryX=0.5;entryY=0;entryDx=0;entryDy=0;" edge="1" parent="1" source="xbrvgaGpoLKTBfdYJC94-1" target="xbrvgaGpoLKTBfdYJC94-10">
          <mxGeometry relative="1" as="geometry" />
        </mxCell>
        <mxCell id="xbrvgaGpoLKTBfdYJC94-1" value="&lt;b&gt;&lt;font style=&quot;font-size: 14px;&quot;&gt;Expense Project&lt;/font&gt;&lt;/b&gt;" style="rounded=1;whiteSpace=wrap;html=1;fillColor=#d5e8d4;strokeColor=#82b366;gradientColor=#97d077;" vertex="1" parent="1">
          <mxGeometry x="280" y="80" width="80" height="40" as="geometry" />
        </mxCell>
        <mxCell id="xbrvgaGpoLKTBfdYJC94-18" style="edgeStyle=orthogonalEdgeStyle;rounded=0;orthogonalLoop=1;jettySize=auto;html=1;entryX=0.5;entryY=0;entryDx=0;entryDy=0;" edge="1" parent="1" source="xbrvgaGpoLKTBfdYJC94-10" target="xbrvgaGpoLKTBfdYJC94-13">
          <mxGeometry relative="1" as="geometry">
            <Array as="points">
              <mxPoint x="319" y="240" />
              <mxPoint x="400" y="240" />
            </Array>
          </mxGeometry>
        </mxCell>
        <mxCell id="xbrvgaGpoLKTBfdYJC94-20" style="edgeStyle=orthogonalEdgeStyle;rounded=0;orthogonalLoop=1;jettySize=auto;html=1;entryX=0.5;entryY=0;entryDx=0;entryDy=0;" edge="1" parent="1" source="xbrvgaGpoLKTBfdYJC94-10" target="xbrvgaGpoLKTBfdYJC94-11">
          <mxGeometry relative="1" as="geometry">
            <Array as="points">
              <mxPoint x="319" y="240" />
              <mxPoint x="-295" y="240" />
            </Array>
          </mxGeometry>
        </mxCell>
        <mxCell id="xbrvgaGpoLKTBfdYJC94-21" style="edgeStyle=orthogonalEdgeStyle;rounded=0;orthogonalLoop=1;jettySize=auto;html=1;entryX=0.5;entryY=0;entryDx=0;entryDy=0;" edge="1" parent="1" source="xbrvgaGpoLKTBfdYJC94-10" target="xbrvgaGpoLKTBfdYJC94-16">
          <mxGeometry relative="1" as="geometry">
            <Array as="points">
              <mxPoint x="320" y="240" />
              <mxPoint x="640" y="240" />
            </Array>
          </mxGeometry>
        </mxCell>
        <mxCell id="xbrvgaGpoLKTBfdYJC94-56" style="edgeStyle=orthogonalEdgeStyle;rounded=0;orthogonalLoop=1;jettySize=auto;html=1;entryX=0.5;entryY=0;entryDx=0;entryDy=0;" edge="1" parent="1" source="xbrvgaGpoLKTBfdYJC94-10" target="xbrvgaGpoLKTBfdYJC94-12">
          <mxGeometry relative="1" as="geometry">
            <Array as="points">
              <mxPoint x="319" y="240" />
              <mxPoint x="-55" y="240" />
            </Array>
          </mxGeometry>
        </mxCell>
        <mxCell id="xbrvgaGpoLKTBfdYJC94-78" style="edgeStyle=orthogonalEdgeStyle;rounded=0;orthogonalLoop=1;jettySize=auto;html=1;exitX=0.5;exitY=1;exitDx=0;exitDy=0;" edge="1" parent="1" source="xbrvgaGpoLKTBfdYJC94-10">
          <mxGeometry relative="1" as="geometry">
            <mxPoint x="815" y="280" as="targetPoint" />
            <Array as="points">
              <mxPoint x="319" y="240" />
              <mxPoint x="815" y="240" />
            </Array>
          </mxGeometry>
        </mxCell>
        <mxCell id="xbrvgaGpoLKTBfdYJC94-10" value="&lt;b&gt;&lt;font style=&quot;font-size: 14px;&quot;&gt;roles&lt;/font&gt;&lt;/b&gt;" style="rounded=1;whiteSpace=wrap;html=1;fillColor=#dae8fc;strokeColor=#6c8ebf;gradientColor=#7ea6e0;" vertex="1" parent="1">
          <mxGeometry x="279" y="160" width="80" height="40" as="geometry" />
        </mxCell>
        <mxCell id="xbrvgaGpoLKTBfdYJC94-26" style="edgeStyle=orthogonalEdgeStyle;rounded=0;orthogonalLoop=1;jettySize=auto;html=1;entryX=0.5;entryY=0;entryDx=0;entryDy=0;" edge="1" parent="1" source="xbrvgaGpoLKTBfdYJC94-11" target="xbrvgaGpoLKTBfdYJC94-24">
          <mxGeometry relative="1" as="geometry" />
        </mxCell>
        <mxCell id="xbrvgaGpoLKTBfdYJC94-27" style="edgeStyle=orthogonalEdgeStyle;rounded=0;orthogonalLoop=1;jettySize=auto;html=1;entryX=0.5;entryY=0;entryDx=0;entryDy=0;" edge="1" parent="1" source="xbrvgaGpoLKTBfdYJC94-11" target="xbrvgaGpoLKTBfdYJC94-25">
          <mxGeometry relative="1" as="geometry" />
        </mxCell>
        <mxCell id="xbrvgaGpoLKTBfdYJC94-11" value="&lt;b&gt;&lt;font style=&quot;font-size: 14px;&quot;&gt;mysql&lt;/font&gt;&lt;/b&gt;" style="rounded=1;whiteSpace=wrap;html=1;fillColor=#ffcd28;strokeColor=#d79b00;gradientColor=#ffa500;" vertex="1" parent="1">
          <mxGeometry x="-335" y="280" width="80" height="40" as="geometry" />
        </mxCell>
        <mxCell id="xbrvgaGpoLKTBfdYJC94-37" style="edgeStyle=orthogonalEdgeStyle;rounded=0;orthogonalLoop=1;jettySize=auto;html=1;entryX=0.5;entryY=0;entryDx=0;entryDy=0;" edge="1" parent="1" source="xbrvgaGpoLKTBfdYJC94-12" target="xbrvgaGpoLKTBfdYJC94-36">
          <mxGeometry relative="1" as="geometry">
            <Array as="points">
              <mxPoint x="-55" y="340" />
              <mxPoint x="-145" y="340" />
            </Array>
          </mxGeometry>
        </mxCell>
        <mxCell id="xbrvgaGpoLKTBfdYJC94-38" style="edgeStyle=orthogonalEdgeStyle;rounded=0;orthogonalLoop=1;jettySize=auto;html=1;exitX=0.5;exitY=1;exitDx=0;exitDy=0;entryX=0.5;entryY=0;entryDx=0;entryDy=0;" edge="1" parent="1" source="xbrvgaGpoLKTBfdYJC94-12" target="xbrvgaGpoLKTBfdYJC94-35">
          <mxGeometry relative="1" as="geometry" />
        </mxCell>
        <mxCell id="xbrvgaGpoLKTBfdYJC94-39" style="edgeStyle=orthogonalEdgeStyle;rounded=0;orthogonalLoop=1;jettySize=auto;html=1;entryX=0.5;entryY=0;entryDx=0;entryDy=0;" edge="1" parent="1" source="xbrvgaGpoLKTBfdYJC94-12" target="xbrvgaGpoLKTBfdYJC94-33">
          <mxGeometry relative="1" as="geometry">
            <Array as="points">
              <mxPoint x="-55" y="340" />
              <mxPoint x="65" y="340" />
            </Array>
          </mxGeometry>
        </mxCell>
        <mxCell id="xbrvgaGpoLKTBfdYJC94-40" style="edgeStyle=orthogonalEdgeStyle;rounded=0;orthogonalLoop=1;jettySize=auto;html=1;entryX=0.5;entryY=0;entryDx=0;entryDy=0;" edge="1" parent="1" source="xbrvgaGpoLKTBfdYJC94-12" target="xbrvgaGpoLKTBfdYJC94-34">
          <mxGeometry relative="1" as="geometry" />
        </mxCell>
        <mxCell id="xbrvgaGpoLKTBfdYJC94-12" value="&lt;span style=&quot;font-size: 14px;&quot;&gt;&lt;b&gt;backend&lt;/b&gt;&lt;/span&gt;" style="rounded=1;whiteSpace=wrap;html=1;fillColor=#ffcd28;strokeColor=#d79b00;gradientColor=#ffa500;" vertex="1" parent="1">
          <mxGeometry x="-95" y="280" width="80" height="40" as="geometry" />
        </mxCell>
        <mxCell id="xbrvgaGpoLKTBfdYJC94-72" style="edgeStyle=orthogonalEdgeStyle;rounded=0;orthogonalLoop=1;jettySize=auto;html=1;entryX=0.5;entryY=0;entryDx=0;entryDy=0;" edge="1" parent="1" source="xbrvgaGpoLKTBfdYJC94-13" target="xbrvgaGpoLKTBfdYJC94-57">
          <mxGeometry relative="1" as="geometry" />
        </mxCell>
        <mxCell id="xbrvgaGpoLKTBfdYJC94-73" style="edgeStyle=orthogonalEdgeStyle;rounded=0;orthogonalLoop=1;jettySize=auto;html=1;entryX=0.5;entryY=0;entryDx=0;entryDy=0;" edge="1" parent="1" source="xbrvgaGpoLKTBfdYJC94-13" target="xbrvgaGpoLKTBfdYJC94-60">
          <mxGeometry relative="1" as="geometry">
            <Array as="points">
              <mxPoint x="400" y="340" />
              <mxPoint x="189" y="340" />
            </Array>
          </mxGeometry>
        </mxCell>
        <mxCell id="xbrvgaGpoLKTBfdYJC94-74" style="edgeStyle=orthogonalEdgeStyle;rounded=0;orthogonalLoop=1;jettySize=auto;html=1;exitX=0.5;exitY=1;exitDx=0;exitDy=0;" edge="1" parent="1" source="xbrvgaGpoLKTBfdYJC94-13" target="xbrvgaGpoLKTBfdYJC94-69">
          <mxGeometry relative="1" as="geometry" />
        </mxCell>
        <mxCell id="xbrvgaGpoLKTBfdYJC94-75" style="edgeStyle=orthogonalEdgeStyle;rounded=0;orthogonalLoop=1;jettySize=auto;html=1;exitX=0.5;exitY=1;exitDx=0;exitDy=0;entryX=0.5;entryY=0;entryDx=0;entryDy=0;" edge="1" parent="1" source="xbrvgaGpoLKTBfdYJC94-13" target="xbrvgaGpoLKTBfdYJC94-58">
          <mxGeometry relative="1" as="geometry" />
        </mxCell>
        <mxCell id="xbrvgaGpoLKTBfdYJC94-76" style="edgeStyle=orthogonalEdgeStyle;rounded=0;orthogonalLoop=1;jettySize=auto;html=1;exitX=0.5;exitY=1;exitDx=0;exitDy=0;" edge="1" parent="1" source="xbrvgaGpoLKTBfdYJC94-13" target="xbrvgaGpoLKTBfdYJC94-59">
          <mxGeometry relative="1" as="geometry" />
        </mxCell>
        <mxCell id="xbrvgaGpoLKTBfdYJC94-13" value="&lt;b&gt;&lt;font style=&quot;font-size: 14px;&quot;&gt;frontend&lt;/font&gt;&lt;/b&gt;" style="rounded=1;whiteSpace=wrap;html=1;fillColor=#ffcd28;strokeColor=#d79b00;gradientColor=#ffa500;" vertex="1" parent="1">
          <mxGeometry x="360" y="280" width="80" height="40" as="geometry" />
        </mxCell>
        <mxCell id="xbrvgaGpoLKTBfdYJC94-54" style="edgeStyle=orthogonalEdgeStyle;rounded=0;orthogonalLoop=1;jettySize=auto;html=1;exitX=0.5;exitY=1;exitDx=0;exitDy=0;entryX=0.5;entryY=0;entryDx=0;entryDy=0;" edge="1" parent="1" source="xbrvgaGpoLKTBfdYJC94-16" target="xbrvgaGpoLKTBfdYJC94-52">
          <mxGeometry relative="1" as="geometry" />
        </mxCell>
        <mxCell id="xbrvgaGpoLKTBfdYJC94-16" value="&lt;b&gt;&lt;font style=&quot;font-size: 14px;&quot;&gt;common&lt;/font&gt;&lt;/b&gt;" style="rounded=1;whiteSpace=wrap;html=1;fillColor=#ffcd28;strokeColor=#d79b00;gradientColor=#ffa500;" vertex="1" parent="1">
          <mxGeometry x="600" y="280" width="80" height="40" as="geometry" />
        </mxCell>
        <mxCell id="xbrvgaGpoLKTBfdYJC94-23" value="&lt;ul style=&quot;font-size: 16px; line-height: 240%;&quot;&gt;&lt;li style=&quot;text-align: justify;&quot;&gt;&lt;b&gt;mysql.yaml&lt;/b&gt;&lt;/li&gt;&lt;li style=&quot;text-align: justify;&quot;&gt;&lt;b&gt;backend.yaml&lt;/b&gt;&lt;/li&gt;&lt;li style=&quot;text-align: justify;&quot;&gt;&lt;b&gt;frontend.yaml&lt;/b&gt;&lt;/li&gt;&lt;li style=&quot;text-align: justify;&quot;&gt;&lt;b&gt;ansible.cfg&lt;/b&gt;&lt;/li&gt;&lt;li style=&quot;text-align: justify;&quot;&gt;&lt;b&gt;inventory.ini&lt;/b&gt;&lt;/li&gt;&lt;/ul&gt;" style="text;strokeColor=none;fillColor=none;html=1;whiteSpace=wrap;verticalAlign=middle;overflow=hidden;" vertex="1" parent="1">
          <mxGeometry x="730" y="270" width="170" height="220" as="geometry" />
        </mxCell>
        <mxCell id="xbrvgaGpoLKTBfdYJC94-24" value="&lt;b&gt;&lt;font style=&quot;font-size: 14px;&quot;&gt;tasks&lt;/font&gt;&lt;/b&gt;" style="rounded=1;whiteSpace=wrap;html=1;fillColor=#f5f5f5;strokeColor=#666666;gradientColor=#b3b3b3;" vertex="1" parent="1">
          <mxGeometry x="-395" y="360" width="80" height="40" as="geometry" />
        </mxCell>
        <mxCell id="xbrvgaGpoLKTBfdYJC94-25" value="&lt;b&gt;&lt;font style=&quot;font-size: 14px;&quot;&gt;vars&lt;/font&gt;&lt;/b&gt;" style="rounded=1;whiteSpace=wrap;html=1;fillColor=#dae8fc;strokeColor=#6c8ebf;gradientColor=#7ea6e0;" vertex="1" parent="1">
          <mxGeometry x="-275" y="360" width="80" height="40" as="geometry" />
        </mxCell>
        <mxCell id="xbrvgaGpoLKTBfdYJC94-28" value="&lt;b&gt;&lt;font style=&quot;font-size: 14px;&quot;&gt;main.yaml&lt;/font&gt;&lt;/b&gt;" style="text;html=1;align=center;verticalAlign=middle;resizable=0;points=[];autosize=1;strokeColor=none;fillColor=none;" vertex="1" parent="1">
          <mxGeometry x="-400" y="440" width="90" height="30" as="geometry" />
        </mxCell>
        <mxCell id="xbrvgaGpoLKTBfdYJC94-30" value="&lt;b&gt;&lt;font style=&quot;font-size: 14px;&quot;&gt;main.yaml&lt;/font&gt;&lt;/b&gt;" style="text;html=1;align=center;verticalAlign=middle;resizable=0;points=[];autosize=1;strokeColor=none;fillColor=none;" vertex="1" parent="1">
          <mxGeometry x="-275" y="440" width="90" height="30" as="geometry" />
        </mxCell>
        <mxCell id="xbrvgaGpoLKTBfdYJC94-31" style="edgeStyle=orthogonalEdgeStyle;rounded=0;orthogonalLoop=1;jettySize=auto;html=1;entryX=0.5;entryY=0.067;entryDx=0;entryDy=0;entryPerimeter=0;" edge="1" parent="1" source="xbrvgaGpoLKTBfdYJC94-24" target="xbrvgaGpoLKTBfdYJC94-28">
          <mxGeometry relative="1" as="geometry" />
        </mxCell>
        <mxCell id="xbrvgaGpoLKTBfdYJC94-32" style="edgeStyle=orthogonalEdgeStyle;rounded=0;orthogonalLoop=1;jettySize=auto;html=1;entryX=0.444;entryY=0.1;entryDx=0;entryDy=0;entryPerimeter=0;" edge="1" parent="1" source="xbrvgaGpoLKTBfdYJC94-25" target="xbrvgaGpoLKTBfdYJC94-30">
          <mxGeometry relative="1" as="geometry" />
        </mxCell>
        <mxCell id="xbrvgaGpoLKTBfdYJC94-33" value="&lt;b style=&quot;&quot;&gt;&lt;font style=&quot;font-size: 12px;&quot;&gt;meta&lt;/font&gt;&lt;/b&gt;" style="rounded=1;whiteSpace=wrap;html=1;fillColor=#e6d0de;strokeColor=#996185;gradientColor=#d5739d;" vertex="1" parent="1">
          <mxGeometry x="35" y="360" width="60" height="40" as="geometry" />
        </mxCell>
        <mxCell id="xbrvgaGpoLKTBfdYJC94-34" value="&lt;b style=&quot;&quot;&gt;&lt;font style=&quot;font-size: 12px;&quot;&gt;template&lt;/font&gt;&lt;/b&gt;" style="rounded=1;whiteSpace=wrap;html=1;fillColor=#d5e8d4;strokeColor=#82b366;gradientColor=#97d077;" vertex="1" parent="1">
          <mxGeometry x="-35" y="360" width="60" height="40" as="geometry" />
        </mxCell>
        <mxCell id="xbrvgaGpoLKTBfdYJC94-35" value="&lt;b style=&quot;&quot;&gt;&lt;font style=&quot;font-size: 12px;&quot;&gt;vars&lt;/font&gt;&lt;/b&gt;" style="rounded=1;whiteSpace=wrap;html=1;fillColor=#dae8fc;strokeColor=#6c8ebf;gradientColor=#7ea6e0;" vertex="1" parent="1">
          <mxGeometry x="-105" y="360" width="60" height="40" as="geometry" />
        </mxCell>
        <mxCell id="xbrvgaGpoLKTBfdYJC94-36" value="&lt;b style=&quot;&quot;&gt;&lt;font style=&quot;font-size: 12px;&quot;&gt;tasks&lt;/font&gt;&lt;/b&gt;" style="rounded=1;whiteSpace=wrap;html=1;fillColor=#f5f5f5;strokeColor=#666666;gradientColor=#b3b3b3;" vertex="1" parent="1">
          <mxGeometry x="-175" y="360" width="60" height="40" as="geometry" />
        </mxCell>
        <mxCell id="xbrvgaGpoLKTBfdYJC94-41" value="&lt;b&gt;&lt;font style=&quot;font-size: 12px;&quot;&gt;main.yaml&lt;/font&gt;&lt;/b&gt;" style="text;html=1;align=center;verticalAlign=middle;resizable=0;points=[];autosize=1;strokeColor=none;fillColor=none;" vertex="1" parent="1">
          <mxGeometry x="70" y="440" width="80" height="30" as="geometry" />
        </mxCell>
        <mxCell id="xbrvgaGpoLKTBfdYJC94-42" value="&lt;b&gt;&lt;font style=&quot;font-size: 12px;&quot;&gt;main.yaml&lt;/font&gt;&lt;/b&gt;" style="text;html=1;align=center;verticalAlign=middle;resizable=0;points=[];autosize=1;strokeColor=none;fillColor=none;" vertex="1" parent="1">
          <mxGeometry x="-125" y="440" width="80" height="30" as="geometry" />
        </mxCell>
        <mxCell id="xbrvgaGpoLKTBfdYJC94-43" value="&lt;b&gt;&lt;font style=&quot;font-size: 12px;&quot;&gt;main.yaml&lt;/font&gt;&lt;/b&gt;" style="text;html=1;align=center;verticalAlign=middle;resizable=0;points=[];autosize=1;strokeColor=none;fillColor=none;" vertex="1" parent="1">
          <mxGeometry x="-195" y="440" width="80" height="30" as="geometry" />
        </mxCell>
        <mxCell id="xbrvgaGpoLKTBfdYJC94-46" value="&lt;b style=&quot;&quot;&gt;&lt;font style=&quot;font-size: 12px;&quot;&gt;backend.service.j2&lt;/font&gt;&lt;/b&gt;" style="text;html=1;align=center;verticalAlign=middle;resizable=0;points=[];autosize=1;strokeColor=none;fillColor=none;" vertex="1" parent="1">
          <mxGeometry x="-55" y="440" width="130" height="30" as="geometry" />
        </mxCell>
        <mxCell id="xbrvgaGpoLKTBfdYJC94-47" style="edgeStyle=orthogonalEdgeStyle;rounded=0;orthogonalLoop=1;jettySize=auto;html=1;" edge="1" parent="1" source="xbrvgaGpoLKTBfdYJC94-36">
          <mxGeometry relative="1" as="geometry">
            <mxPoint x="-145" y="440" as="targetPoint" />
          </mxGeometry>
        </mxCell>
        <mxCell id="xbrvgaGpoLKTBfdYJC94-48" style="edgeStyle=orthogonalEdgeStyle;rounded=0;orthogonalLoop=1;jettySize=auto;html=1;" edge="1" parent="1" source="xbrvgaGpoLKTBfdYJC94-35">
          <mxGeometry relative="1" as="geometry">
            <mxPoint x="-75" y="440" as="targetPoint" />
          </mxGeometry>
        </mxCell>
        <mxCell id="xbrvgaGpoLKTBfdYJC94-49" style="edgeStyle=orthogonalEdgeStyle;rounded=0;orthogonalLoop=1;jettySize=auto;html=1;" edge="1" parent="1" source="xbrvgaGpoLKTBfdYJC94-34">
          <mxGeometry relative="1" as="geometry">
            <mxPoint x="-5" y="440" as="targetPoint" />
          </mxGeometry>
        </mxCell>
        <mxCell id="xbrvgaGpoLKTBfdYJC94-51" style="edgeStyle=orthogonalEdgeStyle;rounded=0;orthogonalLoop=1;jettySize=auto;html=1;" edge="1" parent="1" source="xbrvgaGpoLKTBfdYJC94-33">
          <mxGeometry relative="1" as="geometry">
            <mxPoint x="105" y="440" as="targetPoint" />
            <Array as="points">
              <mxPoint x="65" y="420" />
              <mxPoint x="106" y="420" />
              <mxPoint x="106" y="440" />
            </Array>
          </mxGeometry>
        </mxCell>
        <mxCell id="xbrvgaGpoLKTBfdYJC94-52" value="&lt;b&gt;&lt;font style=&quot;font-size: 14px;&quot;&gt;tasks&lt;/font&gt;&lt;/b&gt;" style="rounded=1;whiteSpace=wrap;html=1;fillColor=#f5f5f5;strokeColor=#666666;gradientColor=#b3b3b3;" vertex="1" parent="1">
          <mxGeometry x="600" y="360" width="80" height="40" as="geometry" />
        </mxCell>
        <mxCell id="xbrvgaGpoLKTBfdYJC94-53" value="&lt;b&gt;&lt;font style=&quot;font-size: 14px;&quot;&gt;main.yaml&lt;/font&gt;&lt;/b&gt;" style="text;html=1;align=center;verticalAlign=middle;resizable=0;points=[];autosize=1;strokeColor=none;fillColor=none;" vertex="1" parent="1">
          <mxGeometry x="595" y="440" width="90" height="30" as="geometry" />
        </mxCell>
        <mxCell id="xbrvgaGpoLKTBfdYJC94-55" style="edgeStyle=orthogonalEdgeStyle;rounded=0;orthogonalLoop=1;jettySize=auto;html=1;entryX=0.494;entryY=0.081;entryDx=0;entryDy=0;entryPerimeter=0;" edge="1" parent="1" source="xbrvgaGpoLKTBfdYJC94-52" target="xbrvgaGpoLKTBfdYJC94-53">
          <mxGeometry relative="1" as="geometry" />
        </mxCell>
        <mxCell id="xbrvgaGpoLKTBfdYJC94-57" value="&lt;b style=&quot;&quot;&gt;&lt;font style=&quot;font-size: 12px;&quot;&gt;meta&lt;/font&gt;&lt;/b&gt;" style="rounded=1;whiteSpace=wrap;html=1;fillColor=#e6d0de;strokeColor=#996185;gradientColor=#d5739d;" vertex="1" parent="1">
          <mxGeometry x="369" y="360" width="60" height="40" as="geometry" />
        </mxCell>
        <mxCell id="xbrvgaGpoLKTBfdYJC94-58" value="&lt;b style=&quot;&quot;&gt;&lt;font style=&quot;font-size: 12px;&quot;&gt;template&lt;/font&gt;&lt;/b&gt;" style="rounded=1;whiteSpace=wrap;html=1;fillColor=#d5e8d4;strokeColor=#82b366;gradientColor=#97d077;" vertex="1" parent="1">
          <mxGeometry x="299" y="360" width="60" height="40" as="geometry" />
        </mxCell>
        <mxCell id="xbrvgaGpoLKTBfdYJC94-59" value="&lt;b style=&quot;&quot;&gt;&lt;font style=&quot;font-size: 12px;&quot;&gt;vars&lt;/font&gt;&lt;/b&gt;" style="rounded=1;whiteSpace=wrap;html=1;fillColor=#dae8fc;strokeColor=#6c8ebf;gradientColor=#7ea6e0;" vertex="1" parent="1">
          <mxGeometry x="229" y="360" width="60" height="40" as="geometry" />
        </mxCell>
        <mxCell id="xbrvgaGpoLKTBfdYJC94-60" value="&lt;b style=&quot;&quot;&gt;&lt;font style=&quot;font-size: 12px;&quot;&gt;tasks&lt;/font&gt;&lt;/b&gt;" style="rounded=1;whiteSpace=wrap;html=1;fillColor=#f5f5f5;strokeColor=#666666;gradientColor=#b3b3b3;" vertex="1" parent="1">
          <mxGeometry x="159" y="360" width="60" height="40" as="geometry" />
        </mxCell>
        <mxCell id="xbrvgaGpoLKTBfdYJC94-61" value="&lt;b&gt;&lt;font style=&quot;font-size: 12px;&quot;&gt;main.yaml&lt;/font&gt;&lt;/b&gt;" style="text;html=1;align=center;verticalAlign=middle;resizable=0;points=[];autosize=1;strokeColor=none;fillColor=none;" vertex="1" parent="1">
          <mxGeometry x="219" y="440" width="80" height="30" as="geometry" />
        </mxCell>
        <mxCell id="xbrvgaGpoLKTBfdYJC94-62" value="&lt;b style=&quot;&quot;&gt;&lt;font style=&quot;font-size: 12px;&quot;&gt;expense.conf.j2&lt;/font&gt;&lt;/b&gt;" style="text;html=1;align=center;verticalAlign=middle;resizable=0;points=[];autosize=1;strokeColor=none;fillColor=none;" vertex="1" parent="1">
          <mxGeometry x="294" y="440" width="110" height="30" as="geometry" />
        </mxCell>
        <mxCell id="xbrvgaGpoLKTBfdYJC94-63" style="edgeStyle=orthogonalEdgeStyle;rounded=0;orthogonalLoop=1;jettySize=auto;html=1;" edge="1" source="xbrvgaGpoLKTBfdYJC94-60" parent="1">
          <mxGeometry relative="1" as="geometry">
            <mxPoint x="189" y="440" as="targetPoint" />
          </mxGeometry>
        </mxCell>
        <mxCell id="xbrvgaGpoLKTBfdYJC94-64" style="edgeStyle=orthogonalEdgeStyle;rounded=0;orthogonalLoop=1;jettySize=auto;html=1;" edge="1" source="xbrvgaGpoLKTBfdYJC94-59" parent="1">
          <mxGeometry relative="1" as="geometry">
            <mxPoint x="259" y="440" as="targetPoint" />
          </mxGeometry>
        </mxCell>
        <mxCell id="xbrvgaGpoLKTBfdYJC94-65" style="edgeStyle=orthogonalEdgeStyle;rounded=0;orthogonalLoop=1;jettySize=auto;html=1;" edge="1" source="xbrvgaGpoLKTBfdYJC94-58" parent="1">
          <mxGeometry relative="1" as="geometry">
            <mxPoint x="329" y="440" as="targetPoint" />
          </mxGeometry>
        </mxCell>
        <mxCell id="xbrvgaGpoLKTBfdYJC94-66" style="edgeStyle=orthogonalEdgeStyle;rounded=0;orthogonalLoop=1;jettySize=auto;html=1;" edge="1" source="xbrvgaGpoLKTBfdYJC94-57" parent="1">
          <mxGeometry relative="1" as="geometry">
            <mxPoint x="439" y="440" as="targetPoint" />
            <Array as="points">
              <mxPoint x="399" y="420" />
              <mxPoint x="440" y="420" />
              <mxPoint x="440" y="440" />
            </Array>
          </mxGeometry>
        </mxCell>
        <mxCell id="xbrvgaGpoLKTBfdYJC94-67" value="&lt;b&gt;&lt;font style=&quot;font-size: 12px;&quot;&gt;main.yaml&lt;/font&gt;&lt;/b&gt;" style="text;html=1;align=center;verticalAlign=middle;resizable=0;points=[];autosize=1;strokeColor=none;fillColor=none;" vertex="1" parent="1">
          <mxGeometry x="149" y="440" width="80" height="30" as="geometry" />
        </mxCell>
        <mxCell id="xbrvgaGpoLKTBfdYJC94-68" value="&lt;b&gt;&lt;font style=&quot;font-size: 12px;&quot;&gt;main.yaml&lt;/font&gt;&lt;/b&gt;" style="text;html=1;align=center;verticalAlign=middle;resizable=0;points=[];autosize=1;strokeColor=none;fillColor=none;" vertex="1" parent="1">
          <mxGeometry x="404" y="440" width="80" height="30" as="geometry" />
        </mxCell>
        <mxCell id="xbrvgaGpoLKTBfdYJC94-69" value="&lt;b style=&quot;&quot;&gt;&lt;font style=&quot;font-size: 12px;&quot;&gt;handlers&lt;/font&gt;&lt;/b&gt;" style="rounded=1;whiteSpace=wrap;html=1;fillColor=#e6d0de;strokeColor=#996185;gradientColor=#d5739d;" vertex="1" parent="1">
          <mxGeometry x="480" y="360" width="60" height="40" as="geometry" />
        </mxCell>
        <mxCell id="xbrvgaGpoLKTBfdYJC94-70" value="&lt;b&gt;&lt;font style=&quot;font-size: 12px;&quot;&gt;main.yaml&lt;/font&gt;&lt;/b&gt;" style="text;html=1;align=center;verticalAlign=middle;resizable=0;points=[];autosize=1;strokeColor=none;fillColor=none;" vertex="1" parent="1">
          <mxGeometry x="470" y="440" width="80" height="30" as="geometry" />
        </mxCell>
        <mxCell id="xbrvgaGpoLKTBfdYJC94-71" style="edgeStyle=orthogonalEdgeStyle;rounded=0;orthogonalLoop=1;jettySize=auto;html=1;entryX=0.507;entryY=-0.03;entryDx=0;entryDy=0;entryPerimeter=0;" edge="1" parent="1" source="xbrvgaGpoLKTBfdYJC94-69" target="xbrvgaGpoLKTBfdYJC94-70">
          <mxGeometry relative="1" as="geometry" />
        </mxCell>
      </root>
    </mxGraphModel>
  </diagram>
  <diagram id="VdnSD7RfeJXr46Ag5mcn" name="Page-2">
    <mxGraphModel dx="1805" dy="482" grid="1" gridSize="10" guides="1" tooltips="1" connect="1" arrows="1" fold="1" page="1" pageScale="1" pageWidth="827" pageHeight="1169" math="0" shadow="0">
      <root>
        <mxCell id="0" />
        <mxCell id="1" parent="0" />
        <mxCell id="GiCQp2hYy_ctot-3EOLP-3" style="edgeStyle=orthogonalEdgeStyle;rounded=0;orthogonalLoop=1;jettySize=auto;html=1;exitX=1;exitY=0.5;exitDx=0;exitDy=0;entryX=0;entryY=0.5;entryDx=0;entryDy=0;" edge="1" parent="1" source="zDNrYdqQQeVwXzna4n-X-1" target="RitYAk9nShCuB43r9WYI-1">
          <mxGeometry relative="1" as="geometry" />
        </mxCell>
        <mxCell id="zDNrYdqQQeVwXzna4n-X-1" value="&lt;b&gt;&lt;font style=&quot;font-size: 14px;&quot;&gt;Expense Project&lt;/font&gt;&lt;/b&gt;" style="rounded=1;whiteSpace=wrap;html=1;fillColor=#60a917;strokeColor=#2D7600;fontColor=#ffffff;" vertex="1" parent="1">
          <mxGeometry x="-40" y="475" width="80" height="40" as="geometry" />
        </mxCell>
        <mxCell id="GiCQp2hYy_ctot-3EOLP-4" style="edgeStyle=orthogonalEdgeStyle;rounded=0;orthogonalLoop=1;jettySize=auto;html=1;exitX=1;exitY=0.5;exitDx=0;exitDy=0;entryX=0;entryY=0.5;entryDx=0;entryDy=0;" edge="1" parent="1" source="RitYAk9nShCuB43r9WYI-1" target="e5sD_DZD3ZSAtRXlUFv8-3">
          <mxGeometry relative="1" as="geometry">
            <Array as="points">
              <mxPoint x="280" y="495" />
              <mxPoint x="280" y="260" />
            </Array>
          </mxGeometry>
        </mxCell>
        <mxCell id="GiCQp2hYy_ctot-3EOLP-5" style="edgeStyle=orthogonalEdgeStyle;rounded=0;orthogonalLoop=1;jettySize=auto;html=1;entryX=0;entryY=0.5;entryDx=0;entryDy=0;" edge="1" parent="1" source="RitYAk9nShCuB43r9WYI-1" target="e5sD_DZD3ZSAtRXlUFv8-4">
          <mxGeometry relative="1" as="geometry">
            <Array as="points">
              <mxPoint x="280" y="495" />
              <mxPoint x="280" y="60" />
            </Array>
          </mxGeometry>
        </mxCell>
        <mxCell id="GiCQp2hYy_ctot-3EOLP-6" style="edgeStyle=orthogonalEdgeStyle;rounded=0;orthogonalLoop=1;jettySize=auto;html=1;exitX=1;exitY=0.5;exitDx=0;exitDy=0;entryX=0;entryY=0.5;entryDx=0;entryDy=0;" edge="1" parent="1" source="RitYAk9nShCuB43r9WYI-1" target="e5sD_DZD3ZSAtRXlUFv8-2">
          <mxGeometry relative="1" as="geometry">
            <Array as="points">
              <mxPoint x="280" y="495" />
              <mxPoint x="280" y="550" />
            </Array>
          </mxGeometry>
        </mxCell>
        <mxCell id="GiCQp2hYy_ctot-3EOLP-7" style="edgeStyle=orthogonalEdgeStyle;rounded=0;orthogonalLoop=1;jettySize=auto;html=1;exitX=1;exitY=0.5;exitDx=0;exitDy=0;entryX=0;entryY=0.5;entryDx=0;entryDy=0;" edge="1" parent="1" source="RitYAk9nShCuB43r9WYI-1" target="e5sD_DZD3ZSAtRXlUFv8-1">
          <mxGeometry relative="1" as="geometry">
            <Array as="points">
              <mxPoint x="280" y="495" />
              <mxPoint x="280" y="750" />
            </Array>
          </mxGeometry>
        </mxCell>
        <mxCell id="RitYAk9nShCuB43r9WYI-1" value="&lt;b&gt;&lt;font style=&quot;font-size: 14px;&quot;&gt;roles&lt;/font&gt;&lt;/b&gt;" style="rounded=1;whiteSpace=wrap;html=1;fillColor=#0050ef;strokeColor=#001DBC;fontColor=#ffffff;" vertex="1" parent="1">
          <mxGeometry x="120" y="475" width="80" height="40" as="geometry" />
        </mxCell>
        <mxCell id="phfEVG2O-IEv52x0w7kB-3" style="edgeStyle=orthogonalEdgeStyle;rounded=0;orthogonalLoop=1;jettySize=auto;html=1;exitX=1;exitY=0.5;exitDx=0;exitDy=0;" edge="1" parent="1" source="e5sD_DZD3ZSAtRXlUFv8-1" target="phfEVG2O-IEv52x0w7kB-1">
          <mxGeometry relative="1" as="geometry" />
        </mxCell>
        <mxCell id="e5sD_DZD3ZSAtRXlUFv8-1" value="&lt;b&gt;&lt;font style=&quot;font-size: 14px;&quot;&gt;common&lt;/font&gt;&lt;/b&gt;" style="rounded=1;whiteSpace=wrap;html=1;fillColor=#ffcd28;strokeColor=#d79b00;gradientColor=#ffa500;" vertex="1" parent="1">
          <mxGeometry x="320" y="730" width="80" height="40" as="geometry" />
        </mxCell>
        <mxCell id="ICCkv1sQ_sTRJqfEcMJp-5" style="edgeStyle=orthogonalEdgeStyle;rounded=0;orthogonalLoop=1;jettySize=auto;html=1;entryX=0;entryY=0.5;entryDx=0;entryDy=0;" edge="1" parent="1" source="e5sD_DZD3ZSAtRXlUFv8-2" target="dvQ6LYF7qZoY-CKziDVP-17">
          <mxGeometry relative="1" as="geometry" />
        </mxCell>
        <mxCell id="ICCkv1sQ_sTRJqfEcMJp-6" style="edgeStyle=orthogonalEdgeStyle;rounded=0;orthogonalLoop=1;jettySize=auto;html=1;exitX=1;exitY=0.5;exitDx=0;exitDy=0;entryX=0;entryY=0.5;entryDx=0;entryDy=0;" edge="1" parent="1" source="e5sD_DZD3ZSAtRXlUFv8-2" target="dvQ6LYF7qZoY-CKziDVP-13">
          <mxGeometry relative="1" as="geometry" />
        </mxCell>
        <mxCell id="ICCkv1sQ_sTRJqfEcMJp-7" style="edgeStyle=orthogonalEdgeStyle;rounded=0;orthogonalLoop=1;jettySize=auto;html=1;exitX=1;exitY=0.5;exitDx=0;exitDy=0;entryX=0;entryY=0.5;entryDx=0;entryDy=0;" edge="1" parent="1" source="e5sD_DZD3ZSAtRXlUFv8-2" target="dvQ6LYF7qZoY-CKziDVP-15">
          <mxGeometry relative="1" as="geometry" />
        </mxCell>
        <mxCell id="ICCkv1sQ_sTRJqfEcMJp-8" style="edgeStyle=orthogonalEdgeStyle;rounded=0;orthogonalLoop=1;jettySize=auto;html=1;exitX=1;exitY=0.5;exitDx=0;exitDy=0;entryX=0;entryY=0.5;entryDx=0;entryDy=0;" edge="1" parent="1" source="e5sD_DZD3ZSAtRXlUFv8-2" target="dvQ6LYF7qZoY-CKziDVP-18">
          <mxGeometry relative="1" as="geometry" />
        </mxCell>
        <mxCell id="ICCkv1sQ_sTRJqfEcMJp-9" style="edgeStyle=orthogonalEdgeStyle;rounded=0;orthogonalLoop=1;jettySize=auto;html=1;exitX=1;exitY=0.5;exitDx=0;exitDy=0;entryX=0;entryY=0.5;entryDx=0;entryDy=0;" edge="1" parent="1" source="e5sD_DZD3ZSAtRXlUFv8-2" target="ICCkv1sQ_sTRJqfEcMJp-2">
          <mxGeometry relative="1" as="geometry" />
        </mxCell>
        <mxCell id="e5sD_DZD3ZSAtRXlUFv8-2" value="&lt;span style=&quot;font-size: 14px;&quot;&gt;&lt;b&gt;frontend&lt;/b&gt;&lt;/span&gt;" style="rounded=1;whiteSpace=wrap;html=1;fillColor=#ffcd28;strokeColor=#d79b00;gradientColor=#ffa500;" vertex="1" parent="1">
          <mxGeometry x="320" y="530" width="80" height="40" as="geometry" />
        </mxCell>
        <mxCell id="HU3dYJqdJNB2yDzSUhcS-5" style="edgeStyle=orthogonalEdgeStyle;rounded=0;orthogonalLoop=1;jettySize=auto;html=1;exitX=1;exitY=0.5;exitDx=0;exitDy=0;entryX=0;entryY=0.5;entryDx=0;entryDy=0;" edge="1" parent="1" source="e5sD_DZD3ZSAtRXlUFv8-3" target="HU3dYJqdJNB2yDzSUhcS-1">
          <mxGeometry relative="1" as="geometry" />
        </mxCell>
        <mxCell id="HU3dYJqdJNB2yDzSUhcS-6" style="edgeStyle=orthogonalEdgeStyle;rounded=0;orthogonalLoop=1;jettySize=auto;html=1;exitX=1;exitY=0.5;exitDx=0;exitDy=0;entryX=0;entryY=0.5;entryDx=0;entryDy=0;" edge="1" parent="1" source="e5sD_DZD3ZSAtRXlUFv8-3" target="HU3dYJqdJNB2yDzSUhcS-2">
          <mxGeometry relative="1" as="geometry" />
        </mxCell>
        <mxCell id="HU3dYJqdJNB2yDzSUhcS-7" style="edgeStyle=orthogonalEdgeStyle;rounded=0;orthogonalLoop=1;jettySize=auto;html=1;exitX=1;exitY=0.5;exitDx=0;exitDy=0;entryX=0;entryY=0.5;entryDx=0;entryDy=0;" edge="1" parent="1" source="e5sD_DZD3ZSAtRXlUFv8-3" target="HU3dYJqdJNB2yDzSUhcS-3">
          <mxGeometry relative="1" as="geometry" />
        </mxCell>
        <mxCell id="HU3dYJqdJNB2yDzSUhcS-8" style="edgeStyle=orthogonalEdgeStyle;rounded=0;orthogonalLoop=1;jettySize=auto;html=1;exitX=1;exitY=0.5;exitDx=0;exitDy=0;entryX=0;entryY=0.5;entryDx=0;entryDy=0;" edge="1" parent="1" source="e5sD_DZD3ZSAtRXlUFv8-3" target="HU3dYJqdJNB2yDzSUhcS-4">
          <mxGeometry relative="1" as="geometry" />
        </mxCell>
        <mxCell id="e5sD_DZD3ZSAtRXlUFv8-3" value="&lt;b&gt;&lt;font style=&quot;font-size: 14px;&quot;&gt;backend&lt;/font&gt;&lt;/b&gt;" style="rounded=1;whiteSpace=wrap;html=1;fillColor=#ffcd28;strokeColor=#d79b00;gradientColor=#ffa500;" vertex="1" parent="1">
          <mxGeometry x="320" y="240" width="80" height="40" as="geometry" />
        </mxCell>
        <mxCell id="XOPJqBmD-H6QpY45RvgQ-3" style="edgeStyle=orthogonalEdgeStyle;rounded=0;orthogonalLoop=1;jettySize=auto;html=1;exitX=1;exitY=0.5;exitDx=0;exitDy=0;entryX=0;entryY=0.5;entryDx=0;entryDy=0;" edge="1" parent="1" source="e5sD_DZD3ZSAtRXlUFv8-4" target="XOPJqBmD-H6QpY45RvgQ-2">
          <mxGeometry relative="1" as="geometry" />
        </mxCell>
        <mxCell id="XOPJqBmD-H6QpY45RvgQ-4" style="edgeStyle=orthogonalEdgeStyle;rounded=0;orthogonalLoop=1;jettySize=auto;html=1;exitX=1;exitY=0.5;exitDx=0;exitDy=0;entryX=0;entryY=0.5;entryDx=0;entryDy=0;" edge="1" parent="1" source="e5sD_DZD3ZSAtRXlUFv8-4" target="XOPJqBmD-H6QpY45RvgQ-1">
          <mxGeometry relative="1" as="geometry" />
        </mxCell>
        <mxCell id="e5sD_DZD3ZSAtRXlUFv8-4" value="&lt;b&gt;&lt;font style=&quot;font-size: 14px;&quot;&gt;mysql&lt;/font&gt;&lt;/b&gt;" style="rounded=1;whiteSpace=wrap;html=1;fillColor=#ffcd28;strokeColor=#d79b00;gradientColor=#ffa500;" vertex="1" parent="1">
          <mxGeometry x="320" y="40" width="80" height="40" as="geometry" />
        </mxCell>
        <mxCell id="q6dhD9Wrudnopj4hAV0T-1" value="&lt;ul style=&quot;font-size: 22px; line-height: 190%;&quot;&gt;&lt;li style=&quot;text-align: justify;&quot;&gt;&lt;b&gt;mysql.yaml&lt;/b&gt;&lt;/li&gt;&lt;li style=&quot;text-align: justify;&quot;&gt;&lt;b&gt;backend.yaml&lt;/b&gt;&lt;/li&gt;&lt;li style=&quot;text-align: justify;&quot;&gt;&lt;b&gt;frontend.yaml&lt;/b&gt;&lt;/li&gt;&lt;li style=&quot;text-align: justify;&quot;&gt;&lt;b&gt;ansible.cfg&lt;/b&gt;&lt;/li&gt;&lt;li style=&quot;text-align: justify;&quot;&gt;&lt;b&gt;inventory.ini&lt;/b&gt;&lt;/li&gt;&lt;/ul&gt;" style="text;strokeColor=none;fillColor=none;html=1;whiteSpace=wrap;verticalAlign=middle;overflow=hidden;rotation=0;" vertex="1" parent="1">
          <mxGeometry x="350" y="810" width="215" height="310" as="geometry" />
        </mxCell>
        <mxCell id="XOPJqBmD-H6QpY45RvgQ-1" value="&lt;b&gt;&lt;font style=&quot;font-size: 14px;&quot;&gt;vars&lt;/font&gt;&lt;/b&gt;" style="rounded=1;whiteSpace=wrap;html=1;fillColor=#d5e8d4;strokeColor=#82b366;gradientColor=#97d077;" vertex="1" parent="1">
          <mxGeometry x="480" y="70" width="80" height="40" as="geometry" />
        </mxCell>
        <mxCell id="XOPJqBmD-H6QpY45RvgQ-2" value="&lt;b&gt;&lt;font style=&quot;font-size: 14px;&quot;&gt;tasks&lt;/font&gt;&lt;/b&gt;" style="rounded=1;whiteSpace=wrap;html=1;fillColor=#e6d0de;strokeColor=#996185;gradientColor=#d5739d;" vertex="1" parent="1">
          <mxGeometry x="480" y="10" width="80" height="40" as="geometry" />
        </mxCell>
        <mxCell id="YAXq-wWEFSINintrEqO_-1" value="&lt;b&gt;&lt;font style=&quot;font-size: 14px;&quot;&gt;main.yaml&lt;/font&gt;&lt;/b&gt;" style="text;html=1;align=center;verticalAlign=middle;resizable=0;points=[];autosize=1;strokeColor=none;fillColor=none;" vertex="1" parent="1">
          <mxGeometry x="620" y="15" width="90" height="30" as="geometry" />
        </mxCell>
        <mxCell id="YAXq-wWEFSINintrEqO_-2" style="edgeStyle=orthogonalEdgeStyle;rounded=0;orthogonalLoop=1;jettySize=auto;html=1;entryX=-0.015;entryY=0.507;entryDx=0;entryDy=0;entryPerimeter=0;" edge="1" parent="1" source="XOPJqBmD-H6QpY45RvgQ-2" target="YAXq-wWEFSINintrEqO_-1">
          <mxGeometry relative="1" as="geometry" />
        </mxCell>
        <mxCell id="GiCQp2hYy_ctot-3EOLP-1" value="&lt;b&gt;&lt;font style=&quot;font-size: 14px;&quot;&gt;main.yaml&lt;/font&gt;&lt;/b&gt;" style="text;html=1;align=center;verticalAlign=middle;resizable=0;points=[];autosize=1;strokeColor=none;fillColor=none;" vertex="1" parent="1">
          <mxGeometry x="620" y="75" width="90" height="30" as="geometry" />
        </mxCell>
        <mxCell id="GiCQp2hYy_ctot-3EOLP-2" style="edgeStyle=orthogonalEdgeStyle;rounded=0;orthogonalLoop=1;jettySize=auto;html=1;entryX=-0.015;entryY=0.507;entryDx=0;entryDy=0;entryPerimeter=0;" edge="1" target="GiCQp2hYy_ctot-3EOLP-1" parent="1">
          <mxGeometry relative="1" as="geometry">
            <mxPoint x="560" y="90" as="sourcePoint" />
          </mxGeometry>
        </mxCell>
        <mxCell id="GiCQp2hYy_ctot-3EOLP-8" style="edgeStyle=orthogonalEdgeStyle;rounded=0;orthogonalLoop=1;jettySize=auto;html=1;" edge="1" parent="1" source="RitYAk9nShCuB43r9WYI-1">
          <mxGeometry relative="1" as="geometry">
            <mxPoint x="320" y="960" as="targetPoint" />
            <Array as="points">
              <mxPoint x="280" y="495" />
              <mxPoint x="280" y="960" />
            </Array>
          </mxGeometry>
        </mxCell>
        <mxCell id="dvQ6LYF7qZoY-CKziDVP-7" style="edgeStyle=orthogonalEdgeStyle;rounded=0;orthogonalLoop=1;jettySize=auto;html=1;exitX=1;exitY=0.5;exitDx=0;exitDy=0;" edge="1" parent="1" source="HU3dYJqdJNB2yDzSUhcS-1" target="dvQ6LYF7qZoY-CKziDVP-1">
          <mxGeometry relative="1" as="geometry" />
        </mxCell>
        <mxCell id="HU3dYJqdJNB2yDzSUhcS-1" value="&lt;b style=&quot;&quot;&gt;&lt;font style=&quot;font-size: 14px;&quot;&gt;tasks&lt;/font&gt;&lt;/b&gt;" style="rounded=1;whiteSpace=wrap;html=1;fillColor=#e6d0de;strokeColor=#996185;gradientColor=#d5739d;" vertex="1" parent="1">
          <mxGeometry x="480" y="150" width="80" height="40" as="geometry" />
        </mxCell>
        <mxCell id="dvQ6LYF7qZoY-CKziDVP-8" style="edgeStyle=orthogonalEdgeStyle;rounded=0;orthogonalLoop=1;jettySize=auto;html=1;exitX=1;exitY=0.5;exitDx=0;exitDy=0;" edge="1" parent="1" source="HU3dYJqdJNB2yDzSUhcS-2" target="dvQ6LYF7qZoY-CKziDVP-4">
          <mxGeometry relative="1" as="geometry" />
        </mxCell>
        <mxCell id="HU3dYJqdJNB2yDzSUhcS-2" value="&lt;b style=&quot;&quot;&gt;&lt;font style=&quot;font-size: 14px;&quot;&gt;vars&lt;/font&gt;&lt;/b&gt;" style="rounded=1;whiteSpace=wrap;html=1;fillColor=#d5e8d4;strokeColor=#82b366;gradientColor=#97d077;" vertex="1" parent="1">
          <mxGeometry x="480" y="210" width="80" height="40" as="geometry" />
        </mxCell>
        <mxCell id="dvQ6LYF7qZoY-CKziDVP-10" style="edgeStyle=orthogonalEdgeStyle;rounded=0;orthogonalLoop=1;jettySize=auto;html=1;exitX=1;exitY=0.5;exitDx=0;exitDy=0;" edge="1" parent="1" source="HU3dYJqdJNB2yDzSUhcS-3" target="dvQ6LYF7qZoY-CKziDVP-5">
          <mxGeometry relative="1" as="geometry" />
        </mxCell>
        <mxCell id="HU3dYJqdJNB2yDzSUhcS-3" value="&lt;span style=&quot;font-size: 14px;&quot;&gt;&lt;b&gt;template&lt;/b&gt;&lt;/span&gt;" style="rounded=1;whiteSpace=wrap;html=1;fillColor=#dae8fc;strokeColor=#6c8ebf;gradientColor=#7ea6e0;" vertex="1" parent="1">
          <mxGeometry x="480" y="270" width="80" height="40" as="geometry" />
        </mxCell>
        <mxCell id="HU3dYJqdJNB2yDzSUhcS-4" value="&lt;b style=&quot;&quot;&gt;&lt;font style=&quot;font-size: 14px;&quot;&gt;meta&lt;/font&gt;&lt;/b&gt;" style="rounded=1;whiteSpace=wrap;html=1;fillColor=#f5f5f5;strokeColor=#666666;gradientColor=#b3b3b3;" vertex="1" parent="1">
          <mxGeometry x="480" y="330" width="80" height="40" as="geometry" />
        </mxCell>
        <mxCell id="dvQ6LYF7qZoY-CKziDVP-1" value="&lt;b&gt;&lt;font style=&quot;font-size: 14px;&quot;&gt;main.yaml&lt;/font&gt;&lt;/b&gt;" style="text;html=1;align=center;verticalAlign=middle;resizable=0;points=[];autosize=1;strokeColor=none;fillColor=none;" vertex="1" parent="1">
          <mxGeometry x="620" y="155" width="90" height="30" as="geometry" />
        </mxCell>
        <mxCell id="dvQ6LYF7qZoY-CKziDVP-4" value="&lt;b style=&quot;&quot;&gt;&lt;font style=&quot;font-size: 14px;&quot;&gt;main.yaml&lt;/font&gt;&lt;/b&gt;" style="text;html=1;align=center;verticalAlign=middle;resizable=0;points=[];autosize=1;strokeColor=none;fillColor=none;" vertex="1" parent="1">
          <mxGeometry x="620" y="215" width="90" height="30" as="geometry" />
        </mxCell>
        <mxCell id="dvQ6LYF7qZoY-CKziDVP-5" value="&lt;b&gt;&lt;font style=&quot;font-size: 14px;&quot;&gt;backend.service.j2&lt;/font&gt;&lt;/b&gt;" style="text;html=1;align=center;verticalAlign=middle;resizable=0;points=[];autosize=1;strokeColor=none;fillColor=none;" vertex="1" parent="1">
          <mxGeometry x="620" y="275" width="150" height="30" as="geometry" />
        </mxCell>
        <mxCell id="dvQ6LYF7qZoY-CKziDVP-6" value="&lt;b&gt;&lt;font style=&quot;font-size: 14px;&quot;&gt;main.yaml&lt;/font&gt;&lt;/b&gt;" style="text;html=1;align=center;verticalAlign=middle;resizable=0;points=[];autosize=1;strokeColor=none;fillColor=none;" vertex="1" parent="1">
          <mxGeometry x="620" y="335" width="90" height="30" as="geometry" />
        </mxCell>
        <mxCell id="dvQ6LYF7qZoY-CKziDVP-11" style="edgeStyle=orthogonalEdgeStyle;rounded=0;orthogonalLoop=1;jettySize=auto;html=1;exitX=1;exitY=0.5;exitDx=0;exitDy=0;entryX=0.022;entryY=0.507;entryDx=0;entryDy=0;entryPerimeter=0;" edge="1" parent="1" source="HU3dYJqdJNB2yDzSUhcS-4" target="dvQ6LYF7qZoY-CKziDVP-6">
          <mxGeometry relative="1" as="geometry" />
        </mxCell>
        <mxCell id="dvQ6LYF7qZoY-CKziDVP-12" style="edgeStyle=orthogonalEdgeStyle;rounded=0;orthogonalLoop=1;jettySize=auto;html=1;exitX=1;exitY=0.5;exitDx=0;exitDy=0;" edge="1" parent="1" source="dvQ6LYF7qZoY-CKziDVP-13" target="dvQ6LYF7qZoY-CKziDVP-19">
          <mxGeometry relative="1" as="geometry" />
        </mxCell>
        <mxCell id="dvQ6LYF7qZoY-CKziDVP-13" value="&lt;b style=&quot;&quot;&gt;&lt;font style=&quot;font-size: 14px;&quot;&gt;tasks&lt;/font&gt;&lt;/b&gt;" style="rounded=1;whiteSpace=wrap;html=1;fillColor=#e6d0de;strokeColor=#996185;gradientColor=#d5739d;" vertex="1" parent="1">
          <mxGeometry x="480" y="410" width="80" height="40" as="geometry" />
        </mxCell>
        <mxCell id="dvQ6LYF7qZoY-CKziDVP-14" style="edgeStyle=orthogonalEdgeStyle;rounded=0;orthogonalLoop=1;jettySize=auto;html=1;exitX=1;exitY=0.5;exitDx=0;exitDy=0;" edge="1" parent="1" source="dvQ6LYF7qZoY-CKziDVP-15" target="dvQ6LYF7qZoY-CKziDVP-20">
          <mxGeometry relative="1" as="geometry" />
        </mxCell>
        <mxCell id="dvQ6LYF7qZoY-CKziDVP-15" value="&lt;b style=&quot;&quot;&gt;&lt;font style=&quot;font-size: 14px;&quot;&gt;vars&lt;/font&gt;&lt;/b&gt;" style="rounded=1;whiteSpace=wrap;html=1;fillColor=#d5e8d4;strokeColor=#82b366;gradientColor=#97d077;" vertex="1" parent="1">
          <mxGeometry x="480" y="470" width="80" height="40" as="geometry" />
        </mxCell>
        <mxCell id="dvQ6LYF7qZoY-CKziDVP-16" style="edgeStyle=orthogonalEdgeStyle;rounded=0;orthogonalLoop=1;jettySize=auto;html=1;exitX=1;exitY=0.5;exitDx=0;exitDy=0;" edge="1" parent="1" source="dvQ6LYF7qZoY-CKziDVP-17" target="dvQ6LYF7qZoY-CKziDVP-21">
          <mxGeometry relative="1" as="geometry" />
        </mxCell>
        <mxCell id="dvQ6LYF7qZoY-CKziDVP-17" value="&lt;b style=&quot;&quot;&gt;&lt;font style=&quot;font-size: 14px;&quot;&gt;template&lt;/font&gt;&lt;/b&gt;" style="rounded=1;whiteSpace=wrap;html=1;fillColor=#dae8fc;strokeColor=#6c8ebf;gradientColor=#7ea6e0;" vertex="1" parent="1">
          <mxGeometry x="480" y="530" width="80" height="40" as="geometry" />
        </mxCell>
        <mxCell id="dvQ6LYF7qZoY-CKziDVP-18" value="&lt;b style=&quot;&quot;&gt;&lt;font style=&quot;font-size: 14px;&quot;&gt;handlers&lt;/font&gt;&lt;/b&gt;" style="rounded=1;whiteSpace=wrap;html=1;fillColor=#ffcc99;strokeColor=#36393d;" vertex="1" parent="1">
          <mxGeometry x="480" y="590" width="80" height="40" as="geometry" />
        </mxCell>
        <mxCell id="dvQ6LYF7qZoY-CKziDVP-19" value="&lt;b&gt;&lt;font style=&quot;font-size: 14px;&quot;&gt;main.yaml&lt;/font&gt;&lt;/b&gt;" style="text;html=1;align=center;verticalAlign=middle;resizable=0;points=[];autosize=1;strokeColor=none;fillColor=none;" vertex="1" parent="1">
          <mxGeometry x="620" y="415" width="90" height="30" as="geometry" />
        </mxCell>
        <mxCell id="dvQ6LYF7qZoY-CKziDVP-20" value="&lt;b style=&quot;&quot;&gt;&lt;font style=&quot;font-size: 14px;&quot;&gt;main.yaml&lt;/font&gt;&lt;/b&gt;" style="text;html=1;align=center;verticalAlign=middle;resizable=0;points=[];autosize=1;strokeColor=none;fillColor=none;" vertex="1" parent="1">
          <mxGeometry x="620" y="475" width="90" height="30" as="geometry" />
        </mxCell>
        <mxCell id="dvQ6LYF7qZoY-CKziDVP-21" value="&lt;b&gt;&lt;font style=&quot;font-size: 14px;&quot;&gt;expense.conf.j2&lt;/font&gt;&lt;/b&gt;" style="text;html=1;align=center;verticalAlign=middle;resizable=0;points=[];autosize=1;strokeColor=none;fillColor=none;" vertex="1" parent="1">
          <mxGeometry x="620" y="535" width="130" height="30" as="geometry" />
        </mxCell>
        <mxCell id="dvQ6LYF7qZoY-CKziDVP-22" value="&lt;b&gt;&lt;font style=&quot;font-size: 14px;&quot;&gt;main.yaml&lt;/font&gt;&lt;/b&gt;" style="text;html=1;align=center;verticalAlign=middle;resizable=0;points=[];autosize=1;strokeColor=none;fillColor=none;" vertex="1" parent="1">
          <mxGeometry x="620" y="595" width="90" height="30" as="geometry" />
        </mxCell>
        <mxCell id="dvQ6LYF7qZoY-CKziDVP-23" style="edgeStyle=orthogonalEdgeStyle;rounded=0;orthogonalLoop=1;jettySize=auto;html=1;exitX=1;exitY=0.5;exitDx=0;exitDy=0;entryX=0.022;entryY=0.507;entryDx=0;entryDy=0;entryPerimeter=0;" edge="1" parent="1" source="dvQ6LYF7qZoY-CKziDVP-18" target="dvQ6LYF7qZoY-CKziDVP-22">
          <mxGeometry relative="1" as="geometry" />
        </mxCell>
        <mxCell id="ICCkv1sQ_sTRJqfEcMJp-2" value="&lt;b style=&quot;&quot;&gt;&lt;font style=&quot;font-size: 14px;&quot;&gt;meta&lt;/font&gt;&lt;/b&gt;" style="rounded=1;whiteSpace=wrap;html=1;fillColor=#f5f5f5;strokeColor=#666666;gradientColor=#b3b3b3;" vertex="1" parent="1">
          <mxGeometry x="480" y="650" width="80" height="40" as="geometry" />
        </mxCell>
        <mxCell id="ICCkv1sQ_sTRJqfEcMJp-3" value="&lt;b&gt;&lt;font style=&quot;font-size: 14px;&quot;&gt;main.yaml&lt;/font&gt;&lt;/b&gt;" style="text;html=1;align=center;verticalAlign=middle;resizable=0;points=[];autosize=1;strokeColor=none;fillColor=none;" vertex="1" parent="1">
          <mxGeometry x="620" y="655" width="90" height="30" as="geometry" />
        </mxCell>
        <mxCell id="ICCkv1sQ_sTRJqfEcMJp-4" style="edgeStyle=orthogonalEdgeStyle;rounded=0;orthogonalLoop=1;jettySize=auto;html=1;exitX=1;exitY=0.5;exitDx=0;exitDy=0;entryX=0.022;entryY=0.507;entryDx=0;entryDy=0;entryPerimeter=0;" edge="1" parent="1" source="ICCkv1sQ_sTRJqfEcMJp-2" target="ICCkv1sQ_sTRJqfEcMJp-3">
          <mxGeometry relative="1" as="geometry" />
        </mxCell>
        <mxCell id="phfEVG2O-IEv52x0w7kB-7" style="edgeStyle=orthogonalEdgeStyle;rounded=0;orthogonalLoop=1;jettySize=auto;html=1;exitX=1;exitY=0.5;exitDx=0;exitDy=0;" edge="1" parent="1" source="phfEVG2O-IEv52x0w7kB-1" target="phfEVG2O-IEv52x0w7kB-4">
          <mxGeometry relative="1" as="geometry" />
        </mxCell>
        <mxCell id="phfEVG2O-IEv52x0w7kB-1" value="&lt;b&gt;&lt;font style=&quot;font-size: 14px;&quot;&gt;tasks&lt;/font&gt;&lt;/b&gt;" style="rounded=1;whiteSpace=wrap;html=1;fillColor=#e6d0de;strokeColor=#996185;gradientColor=#d5739d;" vertex="1" parent="1">
          <mxGeometry x="480" y="730" width="80" height="40" as="geometry" />
        </mxCell>
        <mxCell id="phfEVG2O-IEv52x0w7kB-4" value="&lt;b&gt;&lt;font style=&quot;font-size: 14px;&quot;&gt;main.yaml&lt;/font&gt;&lt;/b&gt;" style="text;html=1;align=center;verticalAlign=middle;resizable=0;points=[];autosize=1;strokeColor=none;fillColor=none;" vertex="1" parent="1">
          <mxGeometry x="620" y="735" width="90" height="30" as="geometry" />
        </mxCell>
      </root>
    </mxGraphModel>
  </diagram>
</mxfile>
